<?xml version="1.0" encoding="UTF-8"?>
<!--Generator: Apple Native CoreSVG 341-->
<!DOCTYPE svg
PUBLIC "-//W3C//DTD SVG 1.1//EN"
       "http://www.w3.org/Graphics/SVG/1.1/DTD/svg11.dtd">
<svg version="1.1" xmlns="http://www.w3.org/2000/svg" xmlns:xlink="http://www.w3.org/1999/xlink" viewBox="0 0 3300 2200">
 <!--glyph: "", point size: 100.0, font version: "20.0d10e1", template writer version: "138.0.0"-->
 <style>.monochrome-0 {-sfsymbols-motion-group:1;-sfsymbols-layer-tags:44685c8a140ac197 square}
.monochrome-1 {-sfsymbols-motion-group:0;-sfsymbols-always-pulses:true;-sfsymbols-layer-tags:44685c8a140ac197 4f4039c11729ea19 checklist}
.monochrome-2 {-sfsymbols-motion-group:0;-sfsymbols-always-pulses:true;-sfsymbols-layer-tags:44685c8a140ac197 4f4039c11729ea19 checklist}
.monochrome-3 {-sfsymbols-motion-group:0;-sfsymbols-always-pulses:true;-sfsymbols-layer-tags:44685c8a140ac197 4f4039c11729ea19 checklist}
.monochrome-4 {-sfsymbols-motion-group:0;-sfsymbols-always-pulses:true;-sfsymbols-layer-tags:44685c8a140ac197 4f4039c11729ea19 checklist}

.multicolor-0:tintColor {-sfsymbols-motion-group:1;-sfsymbols-layer-tags:44685c8a140ac197 square}
.multicolor-1:tintColor {-sfsymbols-motion-group:0;-sfsymbols-always-pulses:true;-sfsymbols-layer-tags:44685c8a140ac197 4f4039c11729ea19 checklist}
.multicolor-2:tintColor {-sfsymbols-motion-group:0;-sfsymbols-always-pulses:true;-sfsymbols-layer-tags:44685c8a140ac197 4f4039c11729ea19 checklist}
.multicolor-3:tintColor {-sfsymbols-motion-group:0;-sfsymbols-always-pulses:true;-sfsymbols-layer-tags:44685c8a140ac197 4f4039c11729ea19 checklist}
.multicolor-4:tintColor {-sfsymbols-motion-group:0;-sfsymbols-always-pulses:true;-sfsymbols-layer-tags:44685c8a140ac197 4f4039c11729ea19 checklist}

.hierarchical-0:secondary {-sfsymbols-motion-group:1;-sfsymbols-layer-tags:44685c8a140ac197 square}
.hierarchical-1:primary {-sfsymbols-motion-group:0;-sfsymbols-layer-tags:44685c8a140ac197 4f4039c11729ea19 checklist}
.hierarchical-2:primary {-sfsymbols-motion-group:0;-sfsymbols-layer-tags:44685c8a140ac197 4f4039c11729ea19 checklist}
.hierarchical-3:primary {-sfsymbols-motion-group:0;-sfsymbols-layer-tags:44685c8a140ac197 4f4039c11729ea19 checklist}
.hierarchical-4:primary {-sfsymbols-motion-group:0;-sfsymbols-layer-tags:44685c8a140ac197 4f4039c11729ea19 checklist}

.SFSymbolsPreviewWireframe {fill:none;opacity:1.0;stroke:black;stroke-width:0.5}
</style>
 <g id="Notes">
  <rect height="2200" id="artboard" style="fill:white;opacity:1" width="3300" x="0" y="0"/>
  <line style="fill:none;stroke:black;opacity:1;stroke-width:0.5;" x1="263" x2="3036" y1="292" y2="292"/>
  <text style="stroke:none;fill:black;font-family:sans-serif;font-size:13;font-weight:bold;" transform="matrix(1 0 0 1 263 322)">Weight/Scale Variations</text>
  <text style="stroke:none;fill:black;font-family:sans-serif;font-size:13;text-anchor:middle;" transform="matrix(1 0 0 1 559.711 322)">Ultralight</text>
  <text style="stroke:none;fill:black;font-family:sans-serif;font-size:13;text-anchor:middle;" transform="matrix(1 0 0 1 856.422 322)">Thin</text>
  <text style="stroke:none;fill:black;font-family:sans-serif;font-size:13;text-anchor:middle;" transform="matrix(1 0 0 1 1153.13 322)">Light</text>
  <text style="stroke:none;fill:black;font-family:sans-serif;font-size:13;text-anchor:middle;" transform="matrix(1 0 0 1 1449.84 322)">Regular</text>
  <text style="stroke:none;fill:black;font-family:sans-serif;font-size:13;text-anchor:middle;" transform="matrix(1 0 0 1 1746.56 322)">Medium</text>
  <text style="stroke:none;fill:black;font-family:sans-serif;font-size:13;text-anchor:middle;" transform="matrix(1 0 0 1 2043.27 322)">Semibold</text>
  <text style="stroke:none;fill:black;font-family:sans-serif;font-size:13;text-anchor:middle;" transform="matrix(1 0 0 1 2339.98 322)">Bold</text>
  <text style="stroke:none;fill:black;font-family:sans-serif;font-size:13;text-anchor:middle;" transform="matrix(1 0 0 1 2636.69 322)">Heavy</text>
  <text style="stroke:none;fill:black;font-family:sans-serif;font-size:13;text-anchor:middle;" transform="matrix(1 0 0 1 2933.4 322)">Black</text>
  <line style="fill:none;stroke:black;opacity:1;stroke-width:0.5;" x1="263" x2="3036" y1="1903" y2="1903"/>
  <g transform="matrix(0.2 0 0 0.2 263 1933)">
   <path d="m46.2402 4.15039c21.7773 0 39.4531-17.627 39.4531-39.4043s-17.6758-39.4043-39.4531-39.4043c-21.7285 0-39.4043 17.627-39.4043 39.4043s17.6758 39.4043 39.4043 39.4043Zm0-7.42188c-17.6758 0-31.9336-14.3066-31.9336-31.9824s14.2578-31.9824 31.9336-31.9824 31.9824 14.3066 31.9824 31.9824-14.3066 31.9824-31.9824 31.9824Zm-17.9688-31.9824c0 2.14844 1.51367 3.61328 3.75977 3.61328h10.498v10.5957c0 2.19727 1.46484 3.71094 3.61328 3.71094 2.24609 0 3.71094-1.51367 3.71094-3.71094v-10.5957h10.5957c2.19727 0 3.71094-1.46484 3.71094-3.61328 0-2.19727-1.51367-3.71094-3.71094-3.71094h-10.5957v-10.5469c0-2.24609-1.46484-3.75977-3.71094-3.75977-2.14844 0-3.61328 1.51367-3.61328 3.75977v10.5469h-10.498c-2.24609 0-3.75977 1.51367-3.75977 3.71094Z"/>
  </g>
  <g transform="matrix(0.2 0 0 0.2 281.506 1933)">
   <path d="m58.5449 14.5508c27.4902 0 49.8047-22.3145 49.8047-49.8047s-22.3145-49.8047-49.8047-49.8047-49.8047 22.3145-49.8047 49.8047 22.3145 49.8047 49.8047 49.8047Zm0-8.30078c-22.9492 0-41.5039-18.5547-41.5039-41.5039s18.5547-41.5039 41.5039-41.5039 41.5039 18.5547 41.5039 41.5039-18.5547 41.5039-41.5039 41.5039Zm-22.6562-41.5039c0 2.39258 1.66016 4.00391 4.15039 4.00391h14.3555v14.4043c0 2.44141 1.66016 4.15039 4.05273 4.15039 2.44141 0 4.15039-1.66016 4.15039-4.15039v-14.4043h14.4043c2.44141 0 4.15039-1.61133 4.15039-4.00391 0-2.44141-1.70898-4.15039-4.15039-4.15039h-14.4043v-14.3555c0-2.49023-1.70898-4.19922-4.15039-4.19922-2.39258 0-4.05273 1.70898-4.05273 4.19922v14.3555h-14.3555c-2.49023 0-4.15039 1.70898-4.15039 4.15039Z"/>
  </g>
  <g transform="matrix(0.2 0 0 0.2 304.924 1933)">
   <path d="m74.8535 28.3203c35.1074 0 63.623-28.4668 63.623-63.5742s-28.5156-63.623-63.623-63.623-63.5742 28.5156-63.5742 63.623 28.4668 63.5742 63.5742 63.5742Zm0-9.08203c-30.127 0-54.4922-24.3652-54.4922-54.4922s24.3652-54.4922 54.4922-54.4922 54.4922 24.3652 54.4922 54.4922-24.3652 54.4922-54.4922 54.4922Zm-28.8574-54.4922c0 2.58789 1.85547 4.39453 4.58984 4.39453h19.7266v19.7754c0 2.68555 1.85547 4.58984 4.44336 4.58984 2.68555 0 4.54102-1.85547 4.54102-4.58984v-19.7754h19.7754c2.68555 0 4.58984-1.80664 4.58984-4.39453 0-2.73438-1.85547-4.58984-4.58984-4.58984h-19.7754v-19.7266c0-2.73438-1.85547-4.63867-4.54102-4.63867-2.58789 0-4.44336 1.9043-4.44336 4.63867v19.7266h-19.7266c-2.73438 0-4.58984 1.85547-4.58984 4.58984Z"/>
  </g>
  <text style="stroke:none;fill:black;font-family:sans-serif;font-size:13;font-weight:bold;" transform="matrix(1 0 0 1 263 1953)">Design Variations</text>
  <text style="stroke:none;fill:black;font-family:sans-serif;font-size:13;" transform="matrix(1 0 0 1 263 1971)">Symbols are supported in up to nine weights and three scales.</text>
  <text style="stroke:none;fill:black;font-family:sans-serif;font-size:13;" transform="matrix(1 0 0 1 263 1989)">For optimal layout with text and other symbols, vertically align</text>
  <text style="stroke:none;fill:black;font-family:sans-serif;font-size:13;" transform="matrix(1 0 0 1 263 2007)">symbols with the adjacent text.</text>
  <line style="fill:none;stroke:#00AEEF;stroke-width:0.5;opacity:1.0;" x1="776" x2="776" y1="1919" y2="1933"/>
  <g transform="matrix(0.2 0 0 0.2 776 1933)">
   <path d="m16.5527 0.78125c2.58789 0 3.85742-0.976562 4.78516-3.71094l6.29883-17.2363h28.8086l6.29883 17.2363c0.927734 2.73438 2.19727 3.71094 4.73633 3.71094 2.58789 0 4.24805-1.5625 4.24805-4.00391 0-0.830078-0.146484-1.61133-0.537109-2.63672l-22.9004-60.9863c-1.12305-2.97852-3.125-4.49219-6.25-4.49219-3.02734 0-5.07812 1.46484-6.15234 4.44336l-22.9004 61.084c-0.390625 1.02539-0.537109 1.80664-0.537109 2.63672 0 2.44141 1.5625 3.95508 4.10156 3.95508Zm13.4766-28.3691 11.8652-32.8613h0.244141l11.8652 32.8613Z"/>
  </g>
  <line style="fill:none;stroke:#00AEEF;stroke-width:0.5;opacity:1.0;" x1="792.836" x2="792.836" y1="1919" y2="1933"/>
  <text style="stroke:none;fill:black;font-family:sans-serif;font-size:13;font-weight:bold;" transform="matrix(1 0 0 1 776 1953)">Margins</text>
  <text style="stroke:none;fill:black;font-family:sans-serif;font-size:13;" transform="matrix(1 0 0 1 776 1971)">Leading and trailing margins on the left and right side of each symbol</text>
  <text style="stroke:none;fill:black;font-family:sans-serif;font-size:13;" transform="matrix(1 0 0 1 776 1989)">can be adjusted by modifying the x-location of the margin guidelines.</text>
  <text style="stroke:none;fill:black;font-family:sans-serif;font-size:13;" transform="matrix(1 0 0 1 776 2007)">Modifications are automatically applied proportionally to all</text>
  <text style="stroke:none;fill:black;font-family:sans-serif;font-size:13;" transform="matrix(1 0 0 1 776 2025)">scales and weights.</text>
  <g transform="matrix(0.2 0 0 0.2 1289 1933)">
   <path d="m14.209 9.32617 8.49609 8.54492c4.29688 4.3457 9.22852 4.05273 13.8672-1.07422l53.4668-58.9355-4.83398-4.88281-53.0762 58.3984c-1.75781 2.00195-3.41797 2.49023-5.76172 0.146484l-5.85938-5.81055c-2.34375-2.29492-1.80664-4.00391 0.195312-5.81055l57.373-54.0039-4.88281-4.83398-57.959 54.4434c-4.93164 4.58984-5.32227 9.47266-1.02539 13.8184Zm32.0801-90.9668c-2.09961 2.05078-2.24609 4.93164-1.07422 6.88477 1.17188 1.80664 3.4668 2.97852 6.68945 2.14844 7.32422-1.70898 14.9414-2.00195 22.0703 2.68555l-2.92969 7.27539c-1.70898 4.15039-0.830078 7.08008 1.85547 9.81445l11.4746 11.5723c2.44141 2.44141 4.49219 2.53906 7.32422 2.05078l5.32227-0.976562 3.32031 3.36914-0.195312 2.7832c-0.195312 2.49023 0.439453 4.39453 2.88086 6.78711l3.80859 3.71094c2.39258 2.39258 5.46875 2.53906 7.8125 0.195312l14.5508-14.5996c2.34375-2.34375 2.24609-5.32227-0.146484-7.71484l-3.85742-3.80859c-2.39258-2.39258-4.24805-3.17383-6.64062-2.97852l-2.88086 0.244141-3.22266-3.17383 1.2207-5.61523c0.634766-2.83203-0.146484-5.0293-3.07617-7.95898l-10.9863-10.9375c-16.6992-16.6016-38.8672-16.2109-53.3203-1.75781Zm7.4707 1.85547c12.1582-8.88672 28.6133-7.37305 39.7461 3.75977l12.1582 12.0605c1.17188 1.17188 1.36719 2.09961 1.02539 3.80859l-1.61133 7.42188 7.51953 7.42188 4.93164-0.292969c1.26953-0.0488281 1.66016 0.0488281 2.63672 1.02539l2.88086 2.88086-12.207 12.207-2.88086-2.88086c-0.976562-0.976562-1.12305-1.36719-1.07422-2.68555l0.341797-4.88281-7.4707-7.42188-7.61719 1.26953c-1.61133 0.341797-2.34375 0.195312-3.56445-0.976562l-10.0098-10.0098c-1.26953-1.17188-1.41602-2.00195-0.634766-3.85742l4.39453-10.4492c-7.8125-7.27539-17.9688-10.4004-28.125-7.42188-0.78125 0.195312-1.07422-0.439453-0.439453-0.976562Z"/>
  </g>
  <text style="stroke:none;fill:black;font-family:sans-serif;font-size:13;font-weight:bold;" transform="matrix(1 0 0 1 1289 1953)">Exporting</text>
  <text style="stroke:none;fill:black;font-family:sans-serif;font-size:13;" transform="matrix(1 0 0 1 1289 1971)">Symbols should be outlined when exporting to ensure the</text>
  <text style="stroke:none;fill:black;font-family:sans-serif;font-size:13;" transform="matrix(1 0 0 1 1289 1989)">design is preserved when submitting to Xcode.</text>
  <text id="template-version" style="stroke:none;fill:black;font-family:sans-serif;font-size:13;text-anchor:end;" transform="matrix(1 0 0 1 3036 1933)">Template v.6.0</text>
  <text style="stroke:none;fill:black;font-family:sans-serif;font-size:13;text-anchor:end;" transform="matrix(1 0 0 1 3036 1951)">Requires Xcode 16 or greater</text>
  <text id="descriptive-name" style="stroke:none;fill:black;font-family:sans-serif;font-size:13;text-anchor:end;" transform="matrix(1 0 0 1 3036 1969)">Generated from square</text>
  <text style="stroke:none;fill:black;font-family:sans-serif;font-size:13;text-anchor:end;" transform="matrix(1 0 0 1 3036 1987)">Typeset at 100.0 points</text>
  <text style="stroke:none;fill:black;font-family:sans-serif;font-size:13;" transform="matrix(1 0 0 1 263 726)">Small</text>
  <text style="stroke:none;fill:black;font-family:sans-serif;font-size:13;" transform="matrix(1 0 0 1 263 1156)">Medium</text>
  <text style="stroke:none;fill:black;font-family:sans-serif;font-size:13;" transform="matrix(1 0 0 1 263 1586)">Large</text>
 </g>
 <g id="Guides">
  <g id="H-reference" style="fill:#27AAE1;stroke:none;" transform="matrix(1 0 0 1 339 696)">
   <path d="M0.993654 0L3.63775 0L29.3281-67.1323L30.0303-67.1323L30.0303-70.459L28.1226-70.459ZM11.6885-24.4799L46.9815-24.4799L46.2315-26.7285L12.4385-26.7285ZM55.1196 0L57.7637 0L30.6382-70.459L29.4326-70.459L29.4326-67.1323Z"/>
  </g>
  <line id="Baseline-S" style="fill:none;stroke:#27AAE1;opacity:1;stroke-width:0.5;" x1="263" x2="3036" y1="696" y2="696"/>
  <line id="Capline-S" style="fill:none;stroke:#27AAE1;opacity:1;stroke-width:0.5;" x1="263" x2="3036" y1="625.541" y2="625.541"/>
  <g id="H-reference" style="fill:#27AAE1;stroke:none;" transform="matrix(1 0 0 1 339 1126)">
   <path d="M0.993654 0L3.63775 0L29.3281-67.1323L30.0303-67.1323L30.0303-70.459L28.1226-70.459ZM11.6885-24.4799L46.9815-24.4799L46.2315-26.7285L12.4385-26.7285ZM55.1196 0L57.7637 0L30.6382-70.459L29.4326-70.459L29.4326-67.1323Z"/>
  </g>
  <line id="Baseline-M" style="fill:none;stroke:#27AAE1;opacity:1;stroke-width:0.5;" x1="263" x2="3036" y1="1126" y2="1126"/>
  <line id="Capline-M" style="fill:none;stroke:#27AAE1;opacity:1;stroke-width:0.5;" x1="263" x2="3036" y1="1055.54" y2="1055.54"/>
  <g id="H-reference" style="fill:#27AAE1;stroke:none;" transform="matrix(1 0 0 1 339 1556)">
   <path d="M0.993654 0L3.63775 0L29.3281-67.1323L30.0303-67.1323L30.0303-70.459L28.1226-70.459ZM11.6885-24.4799L46.9815-24.4799L46.2315-26.7285L12.4385-26.7285ZM55.1196 0L57.7637 0L30.6382-70.459L29.4326-70.459L29.4326-67.1323Z"/>
  </g>
  <line id="Baseline-L" style="fill:none;stroke:#27AAE1;opacity:1;stroke-width:0.5;" x1="263" x2="3036" y1="1556" y2="1556"/>
  <line id="Capline-L" style="fill:none;stroke:#27AAE1;opacity:1;stroke-width:0.5;" x1="263" x2="3036" y1="1485.54" y2="1485.54"/>
  <line id="right-margin-Black-S" style="fill:none;stroke:#00AEEF;stroke-width:0.5;opacity:1.0;" x1="2981.3" x2="2981.3" y1="600.785" y2="720.121"/>
  <line id="left-margin-Black-S" style="fill:none;stroke:#00AEEF;stroke-width:0.5;opacity:1.0;" x1="2885.5" x2="2885.5" y1="600.785" y2="720.121"/>
  <line id="right-margin-Regular-S" style="fill:none;stroke:#00AEEF;stroke-width:0.5;opacity:1.0;" x1="1495.18" x2="1495.18" y1="600.785" y2="720.121"/>
  <line id="left-margin-Regular-S" style="fill:none;stroke:#00AEEF;stroke-width:0.5;opacity:1.0;" x1="1404.51" x2="1404.51" y1="600.785" y2="720.121"/>
  <line id="right-margin-Ultralight-S" style="fill:none;stroke:#00AEEF;stroke-width:0.5;opacity:1.0;" x1="603.073" x2="603.073" y1="600.785" y2="720.121"/>
  <line id="left-margin-Ultralight-S" style="fill:none;stroke:#00AEEF;stroke-width:0.5;opacity:1.0;" x1="516.35" x2="516.35" y1="600.785" y2="720.121"/>
 </g>
 <g id="Symbols">
  <g id="Black-S" transform="matrix(1 0 0 1 2885.5 696)">
   <path class="monochrome-0 multicolor-0:tintColor hierarchical-0:secondary SFSymbolsPreviewWireframe" d="M25 2.88086L70.8008 2.88086C80.3711 2.88086 86.0352-2.7832 86.0352-12.3535L86.0352-58.1543C86.0352-67.7246 80.3711-73.3887 70.8008-73.3887L25-73.3887C15.4297-73.3887 9.76562-67.7246 9.76562-58.1543L9.76562-12.3535C9.76562-2.7832 15.4297 2.88086 25 2.88086ZM27.2461-11.2793C25-11.2793 23.9258-12.1582 23.9258-14.5996L23.9258-55.9082C23.9258-58.3496 25-59.2285 27.2461-59.2285L68.5547-59.2285C70.8008-59.2285 71.875-58.3496 71.875-55.9082L71.875-14.5996C71.875-12.1582 70.8008-11.2793 68.5547-11.2793Z"/>
   <path class="monochrome-1 multicolor-1:tintColor hierarchical-1:primary SFSymbolsPreviewWireframe" d="M50.4819-20.5472L69.5051-20.5472C71.4336-20.5472 72.9535-22.2713 72.9535-24.142C72.9535-26.1024 71.462-27.7398 69.5051-27.7398L50.4819-27.7398C48.5504-27.7398 47.0317-26.0446 47.0317-24.142C47.0317-22.3292 48.5793-20.5472 50.4819-20.5472Z"/>
   <path class="monochrome-2 multicolor-2:tintColor hierarchical-2:primary SFSymbolsPreviewWireframe" d="M32.4616-14.5328C37.7648-14.5328 42.0768-18.8448 42.0768-24.142C42.0768-29.4148 37.7648-33.7282 32.4616-33.7282C27.1355-33.7282 22.8464-29.4178 22.8464-24.142C22.8464-18.8418 27.1339-14.5328 32.4616-14.5328ZM32.4616-20.7311C30.5767-20.7311 29.0447-22.2555 29.0447-24.142C29.0447-26.0025 30.5722-27.5269 32.4616-27.5269C34.3495-27.5269 35.8754-26.0055 35.8754-24.142C35.8754-22.2555 34.3495-20.7311 32.4616-20.7311Z"/>
   <path class="monochrome-3 multicolor-3:tintColor hierarchical-3:primary SFSymbolsPreviewWireframe" d="M50.4819-42.7008L69.5051-42.7008C71.4336-42.7008 72.9535-44.425 72.9535-46.2986C72.9535-48.256 71.462-49.8934 69.5051-49.8934L50.4819-49.8934C48.5504-49.8934 47.0317-48.1982 47.0317-46.2986C47.0317-44.4828 48.5793-42.7008 50.4819-42.7008Z"/>
   <path class="monochrome-4 multicolor-4:tintColor hierarchical-4:primary SFSymbolsPreviewWireframe" d="M32.4616-36.6849C37.7648-36.6849 42.0768-40.9969 42.0768-46.2971C42.0768-51.5669 37.7648-55.8818 32.4616-55.8818C27.1355-55.8818 22.8464-51.5699 22.8464-46.2971C22.8464-40.9939 27.1339-36.6849 32.4616-36.6849ZM31.307-41.1017C30.6928-41.1017 30.1763-41.3898 29.8379-41.8135L27.7557-44.2605C27.4311-44.6673 27.3-44.9265 27.3-45.2833C27.3-46.1916 27.9889-46.847 28.8348-46.847C29.3652-46.847 29.6428-46.6397 29.9888-46.2738L31.313-44.8696L34.6238-50.1203C34.9972-50.7345 35.4423-50.9937 36.0305-50.9937C36.9053-50.9937 37.6491-50.3656 37.6491-49.5092C37.6491-49.1997 37.5758-48.9146 37.3137-48.5213L32.7625-41.9232C32.4196-41.4233 31.8543-41.1017 31.307-41.1017Z"/>
  </g>
  <g id="Regular-S" transform="matrix(1 0 0 1 1404.51 696)">
   <path class="monochrome-0 multicolor-0:tintColor hierarchical-0:secondary SFSymbolsPreviewWireframe" d="M22.2168 0.390625L68.457 0.390625C76.8066 0.390625 80.9082-3.71094 80.9082-11.9141L80.9082-58.4961C80.9082-66.6992 76.8066-70.8008 68.457-70.8008L22.2168-70.8008C13.916-70.8008 9.76562-66.6992 9.76562-58.4961L9.76562-11.9141C9.76562-3.71094 13.916 0.390625 22.2168 0.390625ZM22.3145-6.68945C18.7988-6.68945 16.7969-8.59375 16.7969-12.2559L16.7969-58.1543C16.7969-61.8652 18.7988-63.7207 22.3145-63.7207L68.3594-63.7207C71.875-63.7207 73.877-61.8652 73.877-58.1543L73.877-12.2559C73.877-8.59375 71.875-6.68945 68.3594-6.68945Z"/>
   <path class="monochrome-1 multicolor-1:tintColor hierarchical-1:primary SFSymbolsPreviewWireframe" d="M47.0307-21.6381L65.9201-21.6381C67.306-21.6381 68.4207-22.8239 68.4207-24.1856C68.4207-25.5853 67.318-26.7347 65.9201-26.7347L47.0307-26.7347C45.6431-26.7347 44.5439-25.5611 44.5439-24.1856C44.5439-22.8482 45.6553-21.6381 47.0307-21.6381Z"/>
   <path class="monochrome-2 multicolor-2:tintColor hierarchical-2:primary SFSymbolsPreviewWireframe" d="M31.1589-15.2841C36.0243-15.2841 40.0342-19.3235 40.0342-24.1856C40.0342-29.0528 36.0243-33.0782 31.1589-33.0782C26.2552-33.0782 22.2542-29.0544 22.2542-24.1856C22.2542-19.3218 26.2691-15.2841 31.1589-15.2841ZM31.1589-19.7598C28.7371-19.7598 26.7298-21.7777 26.7298-24.1856C26.7298-26.583 28.7494-28.6009 31.1589-28.6009C33.5529-28.6009 35.5569-26.5846 35.5569-24.1856C35.5569-21.7777 33.5529-19.7598 31.1589-19.7598Z"/>
   <path class="monochrome-3 multicolor-3:tintColor hierarchical-3:primary SFSymbolsPreviewWireframe" d="M47.0307-43.6737L65.9201-43.6737C67.306-43.6737 68.4207-44.8595 68.4207-46.2228C68.4207-47.6209 67.318-48.7702 65.9201-48.7702L47.0307-48.7702C45.6431-48.7702 44.5439-47.5966 44.5439-46.2228C44.5439-44.8837 45.6553-43.6737 47.0307-43.6737Z"/>
   <path class="monochrome-4 multicolor-4:tintColor hierarchical-4:primary SFSymbolsPreviewWireframe" d="M31.1589-37.3336C36.0243-37.3336 40.0342-41.3729 40.0342-46.2367C40.0342-51.1022 36.0243-55.1138 31.1589-55.1138C26.2552-55.1138 22.2542-51.1039 22.2542-46.2367C22.2542-41.3713 26.2691-37.3336 31.1589-37.3336ZM30.0924-41.4779C29.5761-41.4779 29.1868-41.7423 28.8581-42.1213L26.8042-44.5848C26.5678-44.8993 26.4703-45.1515 26.4703-45.5014C26.4703-46.2265 27.0165-46.7729 27.7002-46.7729C28.1524-46.7729 28.4258-46.6006 28.7439-46.2164L30.0662-44.6181L33.3415-49.8653C33.6268-50.3523 33.9992-50.5751 34.4756-50.5751C35.1714-50.5751 35.7697-50.0547 35.7697-49.3801C35.7697-49.0929 35.6965-48.8301 35.4721-48.4787L31.3342-42.1666C31.0471-41.7422 30.5796-41.4779 30.0924-41.4779Z"/>
  </g>
  <g id="Ultralight-S" transform="matrix(1 0 0 1 516.35 696)">
   <path class="monochrome-0 multicolor-0:tintColor hierarchical-0:secondary SFSymbolsPreviewWireframe" d="M19.7647-1.65282L66.9585-1.65282C73.4917-1.65282 76.9576-5.20946 76.9576-11.6416L76.9576-58.8594C76.9576-65.2915 73.4917-68.8482 66.9585-68.8482L19.7647-68.8482C13.2349-68.8482 9.76562-65.3823 9.76562-58.8594L9.76562-11.6416C9.76562-5.11864 13.2349-1.65282 19.7647-1.65282ZM19.8623-3.87405C14.6665-3.87405 11.9834-6.55031 11.9834-11.7564L11.9834-58.7446C11.9834-63.9541 14.6665-66.6269 19.8623-66.6269L66.8609-66.6269C71.875-66.6269 74.7397-63.9541 74.7397-58.7446L74.7397-11.7564C74.7397-6.55031 71.875-3.87405 66.8609-3.87405Z"/>
   <path class="monochrome-1 multicolor-1:tintColor hierarchical-1:primary SFSymbolsPreviewWireframe" d="M43.7901-22.9668L63.3185-22.9668C63.8921-22.9668 64.3237-23.3883 64.3237-23.9619C64.3237-24.5212 63.8921-24.9426 63.3185-24.9426L43.7901-24.9426C43.2309-24.9426 42.795-24.5212 42.795-23.9619C42.795-23.3883 43.2309-22.9668 43.7901-22.9668Z"/>
   <path class="monochrome-2 multicolor-2:tintColor hierarchical-2:primary SFSymbolsPreviewWireframe" d="M30.3713-15.962C34.7253-15.962 38.3368-19.5792 38.3368-23.9619C38.3368-28.3259 34.7253-31.933 30.3713-31.933C25.9829-31.933 22.4002-28.3115 22.4002-23.9619C22.4002-19.5936 25.993-15.962 30.3713-15.962ZM30.3713-17.8119C27.0213-17.8119 24.2502-20.6218 24.2502-23.9619C24.2502-27.2876 27.0457-30.0975 30.3713-30.0975C33.7014-30.0975 36.5012-27.2732 36.5012-23.9619C36.5012-20.6218 33.7014-17.8119 30.3713-17.8119Z"/>
   <path class="monochrome-3 multicolor-3:tintColor hierarchical-3:primary SFSymbolsPreviewWireframe" d="M43.7901-45.4575L63.3185-45.4575C63.8921-45.4575 64.3237-45.879 64.3237-46.4382C64.3237-47.0118 63.8921-47.4333 63.3185-47.4333L43.7901-47.4333C43.2309-47.4333 42.795-47.0118 42.795-46.4382C42.795-45.879 43.2309-45.4575 43.7901-45.4575Z"/>
   <path class="monochrome-4 multicolor-4:tintColor hierarchical-4:primary SFSymbolsPreviewWireframe" d="M30.3713-38.4628C34.7253-38.4628 38.3368-42.0799 38.3368-46.4482C38.3368-50.8266 34.7253-54.4237 30.3713-54.4237C25.9829-54.4237 22.4002-50.8122 22.4002-46.4482C22.4002-42.0943 25.993-38.4628 30.3713-38.4628ZM29.4135-42.0049C29.118-42.0049 28.9258-42.1771 28.7091-42.4037L26.2554-45.2394C26.1277-45.3972 26.0544-45.5693 26.0544-45.8392C26.0544-46.2668 26.4075-46.6444 26.8539-46.6444C27.1294-46.6444 27.3548-46.5123 27.5326-46.2799L29.3791-44.076L33.1542-50.0114C33.3308-50.3013 33.5906-50.4678 33.8661-50.4678C34.3125-50.4678 34.6857-50.1003 34.6857-49.7071C34.6857-49.4961 34.6124-49.3096 34.4603-49.0785L30.1856-42.4325C29.999-42.1527 29.7522-42.0049 29.4135-42.0049Z"/>
  </g>
 </g>
</svg>
